<?xml version="1.0" encoding="UTF-8"?>
<svg id="Layer_1" data-name="Layer 1" xmlns="http://www.w3.org/2000/svg" viewBox="0 0 540.42 241.33">
  <defs>
    <style>
      .cls-1 {
        fill: #fbfbfb;
      }
    </style>
  </defs>
  <path class="cls-1" d="M28.47,217.85C5.96,181.96-1.51,136.34,10.25,95.19c6.74-25.63,22.09-48.95,43.04-65.33,16.04-12.76,36.44-19.76,56.78-20.54,16.33-.81,33.04,1.55,47.23,10.8,0,0,1.53,1,1.53,1l1.52,1.12c.79.56,2.23,1.71,2.95,2.35,1.84,1.56,3.76,3.43,5.33,5.23,10.99,12.4,16.77,29.07,15.73,45.65-1.04,13.05-7.6,24.92-16.35,34.27-8.64,9.95-21.49,17.18-32.23,23.17-12.86,7.44-27.2,14.9-30.93,29.66-.11.58-.42,1.58-.43,2.2-.18,1.34-.39,3.35-.34,4.72,0,0-.02,1.2-.02,1.2,0,0,.1,1.21.1,1.21.01,1.45.39,3.42.63,4.86,2.69,13.07,11.4,25.21,23.33,31.28,12.98,6.28,28.52,1.47,39.59-6.77,8.97-6.67,16.28-16.47,21.68-26.48.63-1.22,1.48-2.88,2.15-4.08,3.4-6.05,6.04-11.65,11.31-17.26,16.18-16.87,42.52-9.45,46.59,13.79,1.32,6.67,1.08,13.8.88,20.16-.06,9.39-1.7,21.58,5.72,28.03,6.21,5.51,16.7,3.79,21.54-2.78,4.38-5.33,5.56-12.19,7.02-19.08,3.09-14.75,4.42-34.21,19.75-42.05,2.45-1.21,5.18-2.01,7.88-2.36,1.39-.24,3.03-.29,4.46-.16,9.38.72,16.89,7.59,19.89,16.26,3.13,8.44,3.13,16.34,6.51,24.16,6.67,16.45,27.55,24.88,43.8,17.79,23.85-9.45,35.72-33.8,32.39-58.75-.96-7.08-2.68-14.3-6.15-20.57-10.35-18.83-34.69-27.09-54.5-18.91-6.39,2.56-12.22,6.44-16.83,11.28-3.98,4.17-10.59,4.33-14.76.35-4.99-4.61-4.01-13.08,1.82-16.5,18.95-12.42,43.84-16.89,64.77-7.32,13.06,5.67,24.85,15.36,31.13,28.37,10.36,22.58,9.59,50.83-4.94,71.52-7.61,10.89-18.77,19.1-31.21,23.55-17.57,6.16-38.31.37-50.42-13.71-6.08-6.62-9.64-15.84-11.41-24.34-.9-4.06-1.59-7.8-2.64-10.85-.47-1.43-1.09-2.78-1.85-4.07-1.56-2.76-5.2-4.84-8.15-4.18-17.32,2.13-10.54,43.06-24.72,58.86-8.76,12.28-29.36,17.13-43.27,5.52-8.35-6.36-11.58-17.98-11.88-27.66-.44-8.27.35-16.5-.19-24.32-.24-3.14-.76-6.33-1.98-9.01-2.02-4.78-7.78-6.82-12.41-4.68-6.43,2.89-9.51,10.72-13.01,16.95-.93,1.71-1.92,3.81-2.86,5.52-8.52,15.81-20.74,30.48-37.4,38.49-22.95,11.03-45.93,7.7-63.68-10.99-10.66-11.34-17.61-26.57-17.68-42.25-.19-2.54.35-5.89.59-8.43.51-2.2.82-4.56,1.62-6.68,1.6-4.81,4.05-9.41,7.02-13.48,12.96-17.71,35.2-24.92,51.39-37.31,4.2-3.21,7.82-7.08,11.04-11.23,4.13-5.44,7.13-11.75,7.63-18.49.52-10.92-3.54-22.31-10.89-30.44-6.77-7.42-15.94-11.37-26.09-12.87-31.52-3.87-57.28,7.05-77.91,30.84-15.13,17.05-23.52,38.71-27.2,61.39-5.27,31.39-.05,62.96,9.9,93.33.75,2.25-2.46,3.73-3.7,1.69h0Z"/>
  <path class="cls-1" d="M256.1,108.75c.65-14.4-16.79-22.62-29.33-18.53-7.03,2.29-11.07,10.89-10.81,18.23.43,12.23,13.3,23.53,25.28,20.43,8.03-2.07,14.23-10.24,14.87-20.13Z"/>
  <g>
    <g>
      <path class="cls-1" d="M458.08,93.84c-2.65,0-4.86.9-6.65,2.68-1.79,1.79-2.68,4.01-2.68,6.65v11.67c0,1.29-1.04,2.33-2.33,2.33h0c-1.29,0-2.33-1.04-2.33-2.33v-11.67c0-3.92,1.35-7.23,4.06-9.94,2.71-2.71,6.02-4.06,9.94-4.06s7.23,1.35,9.94,4.06c2.71,2.71,4.06,6.02,4.06,9.94v11.67c0,1.29-1.04,2.33-2.33,2.33h0c-1.29,0-2.33-1.04-2.33-2.33v-11.67c0-2.64-.9-4.86-2.68-6.65-1.79-1.79-4.01-2.68-6.65-2.68Z"/>
      <path class="cls-1" d="M479.36,100.84h20.72c1.29,0,2.33,1.04,2.33,2.33h0c0,1.29-1.04,2.33-2.33,2.33h-20.72c.53,2.05,1.64,3.73,3.34,5.04,1.7,1.31,3.6,1.96,5.72,1.96h11.67c1.29,0,2.33,1.04,2.33,2.33h0c0,1.29-1.04,2.33-2.33,2.33h-11.67c-3.89,0-7.19-1.36-9.92-4.08-2.72-2.72-4.08-6.03-4.08-9.92s1.36-7.19,4.08-9.92c2.72-2.72,6.03-4.08,9.92-4.08h11.67c1.29,0,2.33,1.04,2.33,2.33h0c0,1.29-1.04,2.33-2.33,2.33h-11.67c-2.12,0-4.02.65-5.72,1.96-1.7,1.31-2.81,2.99-3.34,5.04Z"/>
      <path class="cls-1" d="M521.08,93.84v21c0,1.29-1.04,2.33-2.33,2.33h0c-1.29,0-2.33-1.04-2.33-2.33v-21h-9.33c-1.29,0-2.33-1.04-2.33-2.33h0c0-1.29,1.04-2.33,2.33-2.33h23.33c1.29,0,2.33,1.04,2.33,2.33h0c0,1.29-1.04,2.33-2.33,2.33h-9.33Z"/>
    </g>
    <circle class="cls-1" cx="436.63" cy="114.83" r="2.35"/>
  </g>
</svg>