<?xml version="1.0" encoding="UTF-8"?>
<svg id="Layer_1" xmlns="http://www.w3.org/2000/svg" version="1.1" xmlns:xlink="http://www.w3.org/1999/xlink" viewBox="0 0 800 800">
  <!-- Generator: Adobe Illustrator 30.4.0, SVG Export Plug-In . SVG Version: 2.1.4 Build 226)  -->
  <defs>
    <style>
      .st0, .st1 {
        fill: #fff;
      }

      .st1, .st2 {
        fill-rule: evenodd;
      }

      .st2 {
        fill: url(#linear-gradient);
      }
    </style>
    <linearGradient id="linear-gradient" x1="595.25" y1="167.3" x2="139.42" y2="710.54" gradientUnits="userSpaceOnUse">
      <stop offset="0" stop-color="#55cf61"/>
      <stop offset="1" stop-color="#26b43d"/>
    </linearGradient>
  </defs>
  <g id="Icons">
    <g id="Color-">
      <g id="Whatsapp">
        <path class="st0" d="M400.09,96.14c167.52,0,303.78,136.3,303.78,303.86s-136.26,303.87-303.78,303.87c-61.79,0-119.12-18.39-167.16-50.19l-116.8,37.33,37.86-112.89c-36.43-50.02-57.86-111.66-57.86-178.1,0-167.57,136.26-303.87,303.78-303.87h.18M400.09,36.14h-.17c-200.59,0-363.78,163.23-363.78,363.87,0,38.96,6.16,77.33,18.3,114.05,8.42,25.44,19.6,49.79,33.37,72.7l-28.56,85.17-37.66,112.29,112.81-36.06,90.89-29.05c53.38,29.36,113.24,44.76,174.8,44.76,200.59,0,363.78-163.23,363.78-363.87S600.68,36.14,400.09,36.14h0Z"/>
      </g>
    </g>
  </g>
  <g id="Icons1" data-name="Icons">
    <g id="Color-1" data-name="Color-">
      <path id="Whatsapp1" data-name="Whatsapp" class="st2" d="M399.91,96.14c-167.52,0-303.78,136.3-303.78,303.87,0,66.45,21.43,128.08,57.86,178.1l-37.86,112.89,116.8-37.33c48.04,31.8,105.37,50.19,167.16,50.19,167.52,0,303.78-136.31,303.78-303.87S567.61,96.14,400.09,96.14h-.18Z"/>
    </g>
  </g>
  <path class="st1" d="M315.08,250.49c-5.9-14.11-10.35-14.65-19.28-15.01-3.04-.17-6.43-.35-10.18-.35-11.62,0-23.75,3.4-31.08,10.89-8.93,9.11-31.07,30.36-31.07,73.95s31.79,85.75,36.08,91.65c4.47,5.89,61.97,96.64,151.27,133.63,69.83,28.94,90.55,26.25,106.44,22.87,23.22-5,52.33-22.16,59.65-42.88,7.32-20.72,7.32-38.41,5.17-42.16-2.14-3.75-8.04-5.89-16.96-10.36-8.93-4.47-52.33-25.9-60.55-28.76-8.04-3.04-15.72-1.96-21.79,6.62-8.58,11.97-16.96,24.12-23.75,31.44-5.36,5.72-14.11,6.43-21.43,3.4-9.82-4.1-37.32-13.76-71.26-43.95-26.25-23.4-44.11-52.52-49.29-61.27-5.18-8.93-.53-14.11,3.57-18.94,4.47-5.54,8.75-9.47,13.22-14.65,4.47-5.18,6.97-7.86,9.82-13.93,3.04-5.9.89-11.97-1.25-16.44-2.14-4.47-20-48.06-27.33-65.74h0Z"/>
</svg>