<?xml version="1.0" encoding="UTF-8"?>
<svg id="Layer_1" data-name="Layer 1" xmlns="http://www.w3.org/2000/svg" viewBox="0 0 955.71 286.26">
  <defs>
    <style>
      .cls-1 {
        fill: #26569f;
      }

      .cls-2, .cls-3 {
        fill: #fff;
      }

      .cls-3 {
        fill-rule: evenodd;
      }

      .cls-4 {
        fill: #387dc0;
      }

      .cls-5 {
        fill: #4185c6;
      }

      .cls-6 {
        fill: #7cbc2c;
      }

      .cls-7 {
        fill: #65b633;
      }

      .cls-8 {
        fill: #004493;
      }

      .cls-9 {
        fill: #2664aa;
      }

      .cls-10 {
        fill: #65b634;
      }

      .cls-11 {
        fill: #448ecc;
      }
    </style>
  </defs>
  <g>
    <path class="cls-7" d="M35.95,74.62l-4.28,10.03c-.27.72-.05,1.07.67,1.07h21.67c1.16,0,1.96-.58,2.4-1.74L86.78,12.69h26.22l-31.57,74.37c-6.24,14.62-14.89,21.93-25.95,21.93H8.53c-3.57,0-6.06-1.25-7.49-3.74-1.43-2.5-1.38-5.53.14-9.1l9.09-21.54h25.68Z"/>
    <path class="cls-7" d="M166.76,88.93l-8.56,20.06h-51.36c-5.35,0-9.1-1.87-11.24-5.62-2.14-3.74-2.1-8.29.13-13.64l12.98-30.36c2.23-5.35,5.57-9.9,10.03-13.65,4.46-3.74,9.36-5.62,14.71-5.62h37.18c5.35,0,9.09,1.87,11.24,5.62,2.14,3.75,2.09,8.29-.14,13.65l-9.23,21.67h-48.15l-2.14,5.09c-.8,1.87-.27,2.81,1.61,2.81h42.94ZM152.85,68.6l2.41-5.62c.8-1.87.27-2.81-1.6-2.81h-17.66c-1.87,0-3.21.94-4.01,2.81l-2.41,5.62h23.28Z"/>
    <path class="cls-7" d="M232.3,88.93l-8.56,20.06h-27.69c-5.35,0-9.1-1.87-11.24-5.62-2.14-3.75-2.09-8.29.14-13.64l13.78-32.37h-9.09l7.36-17.26h9.09l8.3-19.8h24.88l-8.29,19.8h21.93l-7.36,17.26h-21.94l-12.17,28.76c-.8,1.87-.26,2.81,1.61,2.81h19.26Z"/>
    <g>
      <path class="cls-3" d="M250.62,108.99h47.35c6.15,0,11.68-2.12,16.58-6.35,4.9-4.24,8.7-9.43,11.37-15.58l6.29-14.98c2.67-6.15,2.78-11.34.34-15.58-2.46-4.24-6.76-6.35-12.91-6.35h-37.99c-1.16,0-1.52-.58-1.07-1.74l4.55-10.7c.54-1.16,1.38-1.74,2.54-1.74h31.97c1.16,0,1.47.58.94,1.74l-2.27,5.48h26.21l3.61-8.56c2.59-6.15,2.67-11.35.27-15.58-2.41-4.24-6.69-6.35-12.84-6.35h-46.68c-6.15,0-11.81,2.12-16.99,6.35-5.17,4.23-9.05,9.43-11.64,15.58l-6.29,14.98c-2.67,6.16-2.78,11.35-.33,15.59,2.45,4.23,6.75,6.35,12.9,6.35h37.99c1.16,0,1.47.58.94,1.74l-4.55,10.7c-.45,1.16-1.25,1.74-2.41,1.74h-31.97c-1.16,0-1.51-.58-1.07-1.74l2.41-5.49h-26.22l-3.61,8.56c-2.67,6.15-2.79,11.35-.33,15.58,2.45,4.24,6.75,6.35,12.91,6.35"/>
      <path class="cls-3" d="M381.31,89.73c-1.87-.18-3.86-.4-5.96-.67-2.09-.26-4.03-.51-5.82-.73-1.79-.22-2.9-.38-3.35-.47l11.77-27.69h19.66c1.25,0,1.87.54,1.87,1.61,0,.27-.09.67-.27,1.2l-10.3,24.21c-.8,1.87-2.14,2.8-4.01,2.8-.54,0-1.74-.08-3.61-.27M361.64,40.11l-40.13,94.3h24.88l12.04-28.23c2.85.54,5.91,1.05,9.16,1.54,3.25.49,6.37.89,9.36,1.21,2.99.31,5.67.58,8.03.8,2.36.22,4.08.34,5.15.34,4.72,0,9.03-1.87,12.91-5.62,3.88-3.75,6.98-8.29,9.3-13.64l13.24-31.43c1.15-2.59,1.73-5.08,1.73-7.49,0-3.48-1.12-6.31-3.34-8.49-2.23-2.19-5.35-3.28-9.36-3.28h-52.97Z"/>
      <path class="cls-3" d="M463.16,62.98c.8-1.87,2.14-2.81,4.01-2.81h17.66c1.88,0,2.41.94,1.6,2.81l-2.41,5.62h-23.27l2.41-5.62ZM501.82,40.11h-37.19c-5.35,0-10.26,1.88-14.71,5.62-4.46,3.75-7.8,8.3-10.03,13.65l-12.98,30.36c-2.23,5.35-2.27,9.9-.14,13.64,2.14,3.74,5.88,5.62,11.24,5.62h51.36l8.56-20.06h-42.93c-1.87,0-2.41-.94-1.61-2.81l2.14-5.09h48.16l9.23-21.67c2.23-5.35,2.28-9.9.13-13.65-2.14-3.74-5.88-5.62-11.23-5.62Z"/>
      <path class="cls-3" d="M550.37,62.98c.8-1.87,2.14-2.81,4.01-2.81h17.66c1.87,0,2.41.94,1.6,2.81l-2.41,5.62h-23.28l2.41-5.62ZM589.03,40.11h-37.19c-5.35,0-10.25,1.88-14.71,5.62-4.46,3.75-7.81,8.3-10.03,13.65l-12.98,30.36c-2.23,5.35-2.27,9.9-.14,13.64,2.14,3.74,5.88,5.62,11.24,5.62h51.37l8.56-20.06h-42.93c-1.87,0-2.41-.94-1.6-2.81l2.14-5.09h48.15l9.23-21.67c2.22-5.35,2.27-9.9.13-13.65-2.14-3.74-5.88-5.62-11.23-5.62Z"/>
      <path class="cls-3" d="M627.28,87.19l10.3-24.21c.8-1.87,2.14-2.81,4.01-2.81h19.66l-11.77,27.69c-.45.09-1.65.24-3.62.47-1.96.22-4.1.47-6.42.73-2.32.27-4.5.49-6.55.67-2.06.18-3.35.27-3.89.27-1.96,0-2.54-.94-1.73-2.8M706.33,12.69h-24.88l-11.64,27.42h-30.77c-5.35,0-10.25,1.88-14.71,5.62-4.46,3.75-7.8,8.3-10.03,13.65l-13.38,31.43c-2.32,5.35-2.39,9.89-.2,13.64,2.19,3.75,5.95,5.62,11.3,5.62,2.32,0,6.29-.36,11.91-1.07,5.62-.71,11.5-1.56,17.65-2.54l-1.07,2.54h24.88l40.93-96.3Z"/>
    </g>
    <path class="cls-2" d="M651.5,128.33l1.68-4.21c.08-.21.07-.4-.03-.56-.1-.16-.25-.24-.47-.24h-7.83l-.45,1-1.62,4.01h8.71ZM640.91,133.03l-2.3,5.67h-6.02l6.99-17.37c.32-.8.83-1.45,1.56-1.95.72-.5,1.48-.74,2.29-.74h13.9c.53,0,1,.11,1.41.33.4.22.72.52.94.89.22.37.35.8.39,1.28.04.48-.05.98-.27,1.49l-6.47,16.08h-6.02l2.3-5.67h-8.68ZM626.48,128.33c.15,0,.3-.05.44-.14.14-.1.25-.22.32-.37l1.46-3.7c.08-.21.08-.4-.01-.56-.09-.16-.24-.24-.45-.24h-10.56l-.42,1-1.61,4.01h10.83ZM621.11,133.03h-7.34l-2.3,5.67h-6.02l8.08-20.06h19.32c.54,0,1,.11,1.41.33.4.22.72.52.94.89.22.37.35.8.39,1.28.04.48-.04.98-.24,1.49l-3.11,7.71c-.31.78-.82,1.43-1.54,1.94-.72.51-1.47.76-2.28.76h-1.29l1.4,5.67h-6.02l-1.4-5.67ZM599.58,126.01c.34,0,.6-.18.77-.54l.53-1.35c.08-.21.07-.4-.03-.56-.1-.16-.26-.24-.47-.24h-8.86l-.4,1-.69,1.69h9.14ZM598.3,133.86c.14-.1.24-.22.3-.37l1.06-2.66c.08-.21.08-.4-.02-.56-.09-.16-.24-.24-.45-.24h-10.38l-1.61,4.01h10.63c.15,0,.31-.06.46-.17ZM599.78,138.7h-20.81l8.08-20.06h17.97c.54,0,1,.11,1.41.33.4.22.72.52.94.89.22.37.35.8.38,1.28.04.48-.05.98-.27,1.49l-1.29,3.24c-.26.61-.67,1.12-1.24,1.53-.57.41-1.18.62-1.83.62h.43c.42,0,.79.09,1.12.27.32.18.58.42.75.72.18.3.28.64.31,1.02.03.38-.04.77-.2,1.18l-1.95,4.81c-.32.8-.83,1.45-1.54,1.95-.71.5-1.47.74-2.27.74ZM567.8,138.7l8.08-20.06h6.02l-1.89,4.67-.4,1-5.78,14.39h-6.02ZM569.83,123.31h-12.78l-.35,1-.81,2.01h10.72l-1.9,4.7h-10.69l-3.11,7.68h-6.02l8.08-20.06h18.71l-1.86,4.67ZM520.2,118.64h20.46l-1.89,4.67-6.68-.03-.4,1.03-5.81,14.39h-6.68l6.19-15.39h-7.08l1.89-4.67ZM506.99,123.29l-3.88,1.03-.87,2.18h10.72l-1.74,4.36h-10.75l-.94,2.38c-.08.21-.07.4.03.56.1.16.26.24.47.24h11.87l-1.87,4.67h-14.64c-.54,0-1.01-.11-1.41-.33-.41-.22-.72-.52-.94-.89-.22-.37-.35-.8-.38-1.29s.05-.99.25-1.5l6.47-16.05h18.74l-1.89,4.67-9.22-.03ZM488.9,118.64h6.02l-8.08,20.06h-10.35l.04-15.88-.4,1-6,14.87h-6.02l8.08-20.06h10.38l-.04,15.88,6.37-15.88ZM458,128.33c.15,0,.3-.05.44-.14.14-.1.25-.22.32-.37l1.47-3.7c.08-.21.08-.4-.02-.56-.09-.16-.24-.24-.45-.24h-10.53l-.44,1-1.62,4.01h10.83ZM452.63,133.03h-7.34l-2.3,5.67h-6.02l8.08-20.06h19.32c.54,0,1.01.11,1.41.33.4.22.72.52.94.89.22.37.35.8.39,1.28.04.48-.05.98-.25,1.49l-3.11,7.71c-.31.78-.82,1.43-1.54,1.94-.71.51-1.47.76-2.27.76h-1.29l1.4,5.67h-6.02l-1.4-5.67ZM426.1,123.31l-.48,1-.87,2.18h10.72l-1.74,4.36h-10.75l-.94,2.38c-.08.21-.07.4.03.56.1.16.25.24.47.24h11.86l-1.87,4.67h-14.64c-.53,0-1-.11-1.41-.33-.4-.22-.72-.52-.94-.89-.22-.37-.35-.8-.38-1.29-.03-.49.05-.99.25-1.5l6.47-16.05h18.74l-1.89,4.67h-12.62ZM398,118.64h20.46l-1.89,4.67h-6.6l-.48,1-5.81,14.39h-6.68l6.19-15.39h-7.08l1.89-4.67ZM388.86,118.64h6.02l-8.08,20.06h-10.35l.04-15.88-.4,1-6,14.87h-6.02l8.08-20.06h10.38l-.04,15.88,6.37-15.88ZM352.89,138.7l8.08-20.06h6.02l-1.89,4.67-.41,1-5.78,14.39h-6.02Z"/>
  </g>
  <g>
    <g>
      <polygon class="cls-10" points="855.88 65.77 716.12 0 810.76 65.29 855.88 65.77"/>
      <path class="cls-6" d="M716.12,0l34.71,73.17c8.44,17.79,4.35,39-10.11,52.4l70.04-60.29L716.12,0Z"/>
      <polygon class="cls-10" points="810.76 65.29 740.72 125.57 855.88 65.77 810.76 65.29"/>
    </g>
    <g>
      <polygon class="cls-11" points="955.71 94.91 915 75.75 860.96 125.77 955.71 94.91"/>
      <polygon class="cls-1" points="860.96 125.77 845.45 154.94 955.71 94.91 860.96 125.77"/>
      <polygon class="cls-8" points="604.21 286.26 845.45 154.94 860.96 125.77 604.21 286.26"/>
      <path class="cls-9" d="M777.89,125.22c-57.89,53.68-115.78,107.36-173.68,161.05l256.75-160.5-83.07-.55Z"/>
      <polygon class="cls-4" points="893.05 65.42 777.89 125.22 860.96 125.77 893.05 65.42"/>
      <polygon class="cls-5" points="915 75.75 893.05 65.42 860.96 125.77 915 75.75"/>
    </g>
  </g>
</svg>