<?xml version="1.0" encoding="UTF-8"?>
<svg id="Layer_1" data-name="Layer 1" xmlns="http://www.w3.org/2000/svg" viewBox="0 0 538.64 242.3">
  <defs>
    <style>
      .cls-1 {
        fill: #45aa36;
      }
    </style>
  </defs>
  <path class="cls-1" d="M27.72,217.77C9.99,189.11.96,154.24,4.67,120.28c2.71-26.14,11.72-52.17,28.9-72.5,11.6-13.76,25.86-25.64,42.76-32.24,25.41-9.86,60.98-11.04,83.68,6.02,6.96,5.13,12.68,12.12,16.69,19.7,6.8,13.01,9.75,28.83,5.64,43.18-3.02,10.7-9.4,19.61-17,27.41-8.45,8.71-20.18,15.22-29.98,20.72-13.5,7.78-28.87,15.86-31.46,31.95-2.01,13.97,5.13,28.85,15.61,37.9,11.59,10.31,25.32,10.41,38.98,4.06,9.79-4.57,17.49-12.17,23.94-21.11,3.04-4.2,5.73-8.82,8.1-13.48.44-.83,3.29-5.98,3.81-6.93,2.12-3.75,4.6-7.89,8.3-11.79,8.04-8.65,21.43-12.04,32.16-6.55,10.57,4.92,15.04,16.66,15.47,27.57.5,8.52-.43,16.67-.14,24.74.33,6.37,1.16,12.44,5.87,16.41,6.22,5.52,16.75,3.8,21.61-2.79,4.39-5.34,5.57-12.23,7.04-19.13,2.65-12.59,3.71-27.08,13.05-37.2,4.57-4.84,11.35-7.62,18.03-7.57,9.06.22,17.04,6.41,20.37,14.67,3.78,8.75,3.63,17.65,7.23,25.95,6.37,15.66,25.62,24.2,41.56,18.72,25.35-8.74,38.32-33.73,34.85-59.82-.97-7.1-2.68-14.34-6.17-20.64-8.4-15.43-27.36-24.51-44.68-21.64-10.13,1.49-19.9,6.69-26.87,13.99-10.05,9.69-24.31-4.08-15.15-14.45.66-.69,1.38-1.26,2.18-1.75,15.42-10,34.07-14.89,52.15-11.43,13.09,2.73,25.12,9.38,34.49,18.89,14.99,15.47,19.2,40.7,14.96,61.33-3.86,19.42-17.39,36.76-35.42,45.06-14.43,7.52-32.54,6.5-46.27-2.13-12.26-7.55-19.29-19.64-22.01-33.41-1.17-5.07-1.69-8.99-3.5-13.04-.75-1.7-1.79-3.36-3.27-4.48-2.7-2.11-5.75-2.11-8.58-.9-7.26,3.14-8.81,13.62-10.38,20.87-1.98,10.21-2.92,21.03-7.54,30.84-1.09,2.23-2.46,4.47-4.2,6.6,0,0,.36-.45.36-.45-1.63,2.23-3.55,4.23-5.68,5.95-9.65,7.73-24.12,9.05-34.72,2.43-10.8-6.34-14.87-18.56-15.27-30.13-.44-8.3.35-16.55-.19-24.39-.24-3.15-.76-6.35-1.99-9.04-2.03-4.8-7.81-6.84-12.44-4.69-6.45,2.9-9.54,10.75-13.05,17.01-.93,1.71-1.92,3.83-2.87,5.53-8.55,15.86-20.81,30.57-37.51,38.6-20.79,10.03-42.48,8.46-60.01-7.26-10.02-9.02-17.26-21.07-20.27-34.23,0,0-.17-.9-.17-.9l-.64-3.61c-.5-3.67-.65-7.45-.45-11.15.19-1.4.38-4.34.71-5.67.8-4.44,2.32-8.85,4.47-12.83,7.34-14.53,22.84-24.1,35.93-31.49,10.45-6.08,19.67-10.93,27.26-19.54,5.78-6.25,10.47-14.1,11.08-22.64.54-11.74-4.13-24.03-12.59-32.25-9.19-8.91-22.47-11.99-35.25-11.94-18.32-.17-36.52,5.03-51.01,16.31C27.23,73.76,15.22,123.73,20.63,169.16c1.8,15.7,5.88,31.3,10.8,46.92.75,2.26-2.47,3.74-3.71,1.69h0Z"/>
  <path class="cls-1" d="M256.05,108.34c.65-14.45-16.84-22.69-29.42-18.59-7.05,2.3-11.1,10.93-10.85,18.28.43,12.27,13.34,23.6,25.36,20.5,8.05-2.08,14.27-10.27,14.91-20.19Z"/>
  <g>
    <g>
      <path class="cls-1" d="M458.64,93.38c-2.65,0-4.88.9-6.67,2.69-1.8,1.79-2.69,4.02-2.69,6.67v11.7c0,1.29-1.05,2.34-2.34,2.34h0c-1.29,0-2.34-1.05-2.34-2.34v-11.7c0-3.93,1.36-7.26,4.07-9.97,2.71-2.71,6.04-4.07,9.97-4.07s7.26,1.36,9.97,4.07c2.72,2.71,4.07,6.04,4.07,9.97v11.7c0,1.29-1.05,2.34-2.34,2.34h0c-1.29,0-2.34-1.05-2.34-2.34v-11.7c0-2.65-.9-4.88-2.69-6.67-1.79-1.79-4.02-2.69-6.67-2.69Z"/>
      <path class="cls-1" d="M479.99,100.4h20.78c1.29,0,2.34,1.05,2.34,2.34h0c0,1.29-1.05,2.34-2.34,2.34h-20.78c.53,2.06,1.65,3.74,3.35,5.06,1.7,1.31,3.61,1.97,5.73,1.97h11.7c1.29,0,2.34,1.05,2.34,2.34h0c0,1.29-1.05,2.34-2.34,2.34h-11.7c-3.9,0-7.22-1.36-9.95-4.1-2.73-2.73-4.1-6.05-4.1-9.95s1.36-7.22,4.1-9.95c2.73-2.73,6.05-4.1,9.95-4.1h11.7c1.29,0,2.34,1.05,2.34,2.34h0c0,1.29-1.05,2.34-2.34,2.34h-11.7c-2.12,0-4.03.66-5.73,1.97-1.7,1.31-2.82,3-3.35,5.06Z"/>
      <path class="cls-1" d="M521.84,93.38v21.06c0,1.29-1.05,2.34-2.34,2.34h0c-1.29,0-2.34-1.05-2.34-2.34v-21.06h-9.36c-1.29,0-2.34-1.05-2.34-2.34h0c0-1.29,1.05-2.34,2.34-2.34h23.41c1.29,0,2.34,1.05,2.34,2.34h0c0,1.29-1.05,2.34-2.34,2.34h-9.36Z"/>
    </g>
    <circle class="cls-1" cx="437.13" cy="114.43" r="2.36"/>
  </g>
</svg>